<?xml version="1.0"?>
<svg width="640" height="480" xmlns="http://www.w3.org/2000/svg" xmlns:svg="http://www.w3.org/2000/svg">
 <!-- Created with SVG-edit - https://github.com/SVG-Edit/svgedit-->
 <g class="layer">
  <title>Layer 1</title>
  <path d="m89.5,131c1.98,9.01 2.11,9.65 2.24,10.26c0.23,1.1 0.33,1.6 0.56,2.48c0.37,1.41 0.64,1.93 0.92,2.77c0.32,0.97 0.28,1.97 0.29,2.66c0,1.07 0.25,1.91 0.61,2.5c0.53,0.85 0.82,1.59 1.03,2.44c0.29,1.18 0.3,1.82 0.4,2.54c0.11,0.86 0.18,1.36 0.62,3.2c0.18,0.75 0.4,1.54 0.64,2.38c0.25,0.87 0.52,1.77 0.81,2.69c0.29,0.92 0.88,2.75 1.19,3.64c0.3,0.87 0.6,1.73 0.9,2.58c0.3,0.84 0.6,1.68 0.9,2.51c0.3,0.83 0.9,2.52 1.2,3.37c0.3,0.86 0.59,1.71 0.89,2.55c0.29,0.82 0.57,1.62 0.85,2.39c0.27,0.73 0.78,2.04 1.04,2.61c0.23,0.52 0.46,0.99 0.69,1.41c0.21,0.39 0.42,0.76 0.63,1.09c0.59,0.94 1,1.53 1.4,2.13c0.4,0.6 1.2,1.8 1.6,2.4c0.39,0.58 0.92,1.4 1.43,2.07c0.62,0.81 1.23,1.49 1.81,1.85c0.71,0.44 2.01,0.81 2.58,0.96c0.67,0.18 1.45,0.36 2.36,0.54c1.05,0.2 2.25,0.4 3.62,0.58c3.29,0.44 5.25,0.61 7.39,0.8c2.3,0.21 4.74,0.4 7.31,0.58c2.66,0.19 5.38,0.37 8.16,0.54c5.61,0.33 8.4,0.47 11.15,0.6c2.7,0.13 5.32,0.24 7.86,0.35c2.43,0.1 4.74,0.18 6.91,0.26c3.86,0.13 5.51,0.17 7,0.2c1.32,0.03 2.49,0.05 3.53,0.04c0.92,0 1.73,-0.01 2.45,-0.04c1.22,-0.06 1.75,-0.13 2.22,-0.2c0.44,-0.06 0.83,-0.14 1.18,-0.22c0.32,-0.07 0.61,-0.15 0.87,-0.22c0.44,-0.12 0.63,-0.16 0.81,-0.2c0.16,-0.03 0.31,-0.06 0.45,-0.1c0.14,-0.04 0.27,-0.08 0.4,-0.15c0.29,-0.15 0.44,-0.27 0.61,-0.4c0.18,-0.14 0.37,-0.3 0.57,-0.47c0.22,-0.18 0.45,-0.37 0.71,-0.56c0.55,-0.41 0.87,-0.6 1.2,-0.8c0.34,-0.2 0.69,-0.39 1.05,-0.58c0.36,-0.19 0.73,-0.37 1.1,-0.54c0.71,-0.33 1.06,-0.47 1.4,-0.6c0.32,-0.13 0.64,-0.25 0.94,-0.36c0.29,-0.11 0.58,-0.21 0.86,-0.32c0.52,-0.2 0.77,-0.3 1,-0.4c0.23,-0.1 0.45,-0.21 0.66,-0.32c0.21,-0.11 0.42,-0.23 0.62,-0.36c0.41,-0.27 0.6,-0.43 0.8,-0.6c0.2,-0.17 0.39,-0.34 0.58,-0.52c0.19,-0.17 0.36,-0.35 0.54,-0.52c0.32,-0.32 0.46,-0.46 0.6,-0.6c0.13,-0.13 0.28,-0.23 0.68,-0.77c0.55,-0.73 0.89,-1.47 1.5,-2.36c0.53,-0.77 0.7,-1.56 0.7,-2.46c0,-0.86 0.18,-1.82 0,-2.65c-0.15,-0.69 -1.2,-0.65 -2.06,-0.65c-0.89,0 -1.41,-0.85 -2.23,-1c-0.88,-0.16 -1.54,0.66 -2.36,1c-0.74,0.31 -1.47,0.83 -2.36,1c-0.89,0.17 -1.09,0.94 -1.82,1.06c-0.97,0.15 -1.8,0.46 -2.52,0.53c-1.32,0.14 -1.85,0.08 -2.97,0c-0.59,-0.04 -1.17,-0.11 -2.33,-0.24c-0.55,-0.06 -1.96,-0.24 -2.68,-0.29c-1.01,-0.07 -1.93,-0.06 -2.89,-0.06c-0.9,0 -1.62,0.36 -2.15,0.95c-0.53,0.59 -0.65,1.37 -0.65,2.26c0,0.99 0,1.81 0,2.47c0,1 0,1.81 0,2.63c0,1.23 0,1.91 0,2.85c0,0.79 0,1.61 0,2.67c0,0.93 0,1.77 0,2.76c0,0.75 -0.09,1.77 0,2.7c0.08,0.88 0.67,1.45 1.32,2.01c0.63,0.55 1.51,1.03 2.32,1.47c0.5,0.27 1.07,0.57 1.73,0.91c0.75,0.39 1.59,0.82 2.54,1.31c2.25,1.16 3.56,1.85 4.99,2.59c1.52,0.79 3.13,1.63 4.8,2.49c1.72,0.89 3.48,1.78 5.25,2.67c3.53,1.76 5.27,2.59 6.97,3.38c1.64,0.77 3.23,1.5 4.76,2.18c1.45,0.64 2.81,1.24 4.08,1.77c2.22,0.93 3.17,1.29 4,1.6c0.73,0.27 1.36,0.49 1.92,0.67c0.48,0.15 0.89,0.27 1.24,0.35c0.57,0.14 0.81,0.17 1.01,0.21c0.18,0.03 0.34,0.05 0.47,0.06c0.12,0.01 0.21,0.02 0.29,0.02c0.12,0 0.17,0 0.2,0c0.03,0 0.05,0 0.06,0c0.01,0 0.02,0 0.02,0c0,0 0,0 0,0c0.02,0 0.79,0 1.83,0c0.8,0 1.29,0 2.44,-0.08c0.67,-0.05 1.41,-0.13 2.22,-0.26c1.85,-0.29 2.89,-0.54 4,-0.8c1.2,-0.28 2.46,-0.6 3.8,-0.94c1.41,-0.36 2.89,-0.74 4.43,-1.12c3.27,-0.81 5,-1.2 6.77,-1.59c1.78,-0.39 3.54,-0.77 5.28,-1.14c1.68,-0.36 3.28,-0.69 4.79,-1.01c2.61,-0.55 3.68,-0.79 4.59,-1c0.77,-0.18 1.41,-0.34 1.94,-0.47c0.43,-0.11 0.77,-0.21 1.04,-0.29c0.38,-0.12 0.51,-0.17 0.62,-0.2c0.08,-0.03 0.15,-0.05 0.19,-0.06c0.03,-0.01 0.05,-0.02 0.06,-0.02c0,0 0,0 0,0c0,0 0,0 0,0c0,-0.29 0,-1.17 0,-2c0,-0.98 0,-1.8 0,-2.7c0,-0.9 0,-1.8 0,-2.7c0,-0.9 0.4,-2.04 -0.17,-2.6c-0.6,-0.6 -1.48,-0.9 -2.35,-0.96c-0.82,-0.06 -1.67,0.59 -2.48,0.79c-0.8,0.2 -1.7,0.2 -2.69,0.45c-0.85,0.21 -1.44,0.44 -2.61,1.03c-0.6,0.31 -1.14,0.7 -1.93,1.11c-1.07,0.56 -1.86,0.81 -2.53,1.27c-0.88,0.61 -1.85,0.69 -2.24,1.52c-0.38,0.79 0.32,1.93 -0.22,2.66c-0.48,0.64 -0.59,1.25 0.05,1.95c0.56,0.62 1.12,1.34 1.87,1.81c0.75,0.47 1.79,0.33 2.42,0.39c0.91,0.09 1.71,0.28 2.7,0.53c0.56,0.14 1.76,0.45 2.39,0.62c0.65,0.17 1.3,0.35 2.62,0.65c1.27,0.29 1.89,0.41 2.48,0.52c1.1,0.21 1.6,0.3 2.86,0.48c1.05,0.15 1.93,0.17 2.83,0.17c0.8,0 1.69,0 2.57,0c0.93,0 1.53,0 2.23,0c0.83,0 1.8,0 2.93,0c1.3,0 2.8,0 4.5,0c4.1,0 6.52,0 9.15,0c2.78,0 5.67,0 8.6,0c2.93,0 5.79,0 8.55,0c4.97,0 7.09,0 8.96,0c1.64,0 3.07,-0.01 4.3,-0.02c1.07,-0.01 1.99,-0.03 2.78,-0.06c1.27,-0.06 1.78,-0.13 2.24,-0.2c0.4,-0.06 0.77,-0.14 1.09,-0.24c0.3,-0.08 0.59,-0.18 0.87,-0.28c0.57,-0.2 0.88,-0.3 1.21,-0.4c0.34,-0.1 0.7,-0.19 1.07,-0.28c0.38,-0.09 0.77,-0.17 1.16,-0.24c0.8,-0.13 1.2,-0.17 1.6,-0.2c0.4,-0.03 0.79,-0.06 1.18,-0.08c0.38,-0.03 0.76,-0.05 1.14,-0.08c0.72,-0.07 1.06,-0.13 1.4,-0.2c0.32,-0.06 0.62,-0.14 0.91,-0.22c0.27,-0.07 0.51,-0.15 0.73,-0.22c0.36,-0.12 0.49,-0.16 0.6,-0.2c0.09,-0.03 0.16,-0.06 0.21,-0.08c0.05,-0.02 0.09,-0.05 0.12,-0.08c0.09,-0.08 0.14,-0.14 0.2,-0.2c0.07,-0.07 0.22,-0.22 0.94,-0.94c0.61,-0.61 1.27,-1.12 1.85,-1.49c0.75,-0.48 1.33,-0.81 2.53,-1.4l0.59,-0.25l0.85,-0.33" fill="none" id="svg_1" stroke="#000000"/>
 </g>
</svg>